<?xml version="1.0" encoding="iso-8859-1"?>
<!-- Generator: Adobe Illustrator 18.0.0, SVG Export Plug-In . SVG Version: 6.00 Build 0)  -->
<!DOCTYPE svg PUBLIC "-//W3C//DTD SVG 1.1//EN" "http://www.w3.org/Graphics/SVG/1.1/DTD/svg11.dtd">
<svg version="1.1" id="Capa_1" xmlns="http://www.w3.org/2000/svg" xmlns:xlink="http://www.w3.org/1999/xlink" x="0px" y="0px"
	 viewBox="0 0 229.311 229.311" style="enable-background:new 0 0 229.311 229.311;" xml:space="preserve">
<g>
	<path d="M220.21,36.231h-27.03V9c0-4.971-4.029-9-9-9H9.101c-4.971,0-9,4.029-9,9v175.08c0,4.971,4.029,9,9,9h27.03v27.231
		c0,4.971,4.029,9,9,9H220.21c4.971,0,9-4.029,9-9V45.231C229.21,40.26,225.181,36.231,220.21,36.231z M36.131,45.231V175.08h-18.03
		V18H175.18v18.231H45.131C40.16,36.231,36.131,40.26,36.131,45.231z M175.18,54.231V175.08H54.131V54.231H175.18z M211.21,211.311
		H54.131V193.08H184.18c4.971,0,9-4.029,9-9V54.231h18.03V211.311z"/>
</g>
<g>
</g>
<g>
</g>
<g>
</g>
<g>
</g>
<g>
</g>
<g>
</g>
<g>
</g>
<g>
</g>
<g>
</g>
<g>
</g>
<g>
</g>
<g>
</g>
<g>
</g>
<g>
</g>
<g>
</g>
</svg>
